<?xml version="1.0" encoding="utf-8"?>
<!-- Svg Vector Icons : http://www.onlinewebfonts.com/icon -->
<!DOCTYPE svg PUBLIC "-//W3C//DTD SVG 1.1//EN" "http://www.w3.org/Graphics/SVG/1.1/DTD/svg11.dtd">
<svg version="1.1" xmlns="http://www.w3.org/2000/svg" xmlns:xlink="http://www.w3.org/1999/xlink" x="0px" y="0px" viewBox="0 0 1000 1000" enable-background="new 0 0 1000 1000" xml:space="preserve">
<metadata> Svg Vector Icons : http://www.onlinewebfonts.com/icon </metadata>
<g><path d="M10,17.8L10,17.8L10,17.8L10,17.8L10,17.8z M989.4,595.6c0.8,3.8,0.8,7.3,0,10.4l-71.4,313c-0.8,3.8-2.3,7.3-4.6,10.3c-8.5,16.1-20,28.8-34.5,38c-16.1,10-33.4,15-51.8,15H235.5c-9.2,0-17.1-3.1-23.6-9.2s-9.8-13.8-9.8-23l1.1-393.6v-6.9l2.3-4.6c0-2.3,0.6-4.2,1.7-5.7c1.2-1.5,2.1-2.7,2.9-3.5l4.6-4.6c1.5-1.5,3.1-2.7,4.6-3.5l4.6-2.3c1.5-0.8,3.5-1.3,5.8-1.7c2.3-0.4,4.2-0.6,5.7-0.6h112.8c50.7-3.8,93.4-24,128.3-60.4c34.9-36.5,53.1-80,54.7-130.6c-0.8-3.1-1.1-5.8-1.1-8.1c0-26.9,9.4-49.5,28.2-67.9c18.8-18.4,41.3-27.6,67.3-27.6c22.2,0,42,6.9,59.3,20.7c17.3,13.8,28.6,31.5,34,53c3.1,12.3,5.4,24.6,6.9,36.8c1.5,12.3,2.3,24.9,2.3,38c0,39.1-6.5,77.1-19.6,113.9h187.6c16.1,0.8,31.3,5.2,45.4,13.2c14.2,8,25.5,19,34,32.8c10.8,17.7,15.4,37.2,13.8,58.7L989.4,595.6L989.4,595.6z M267.8,916.6h65.6l1.1-328h-65.6L267.8,916.6L267.8,916.6z M920.4,571.4c-6.9-10.8-16.5-15.7-28.8-15l0,0l-231.3-1.1c-3.8,0-7.5-0.4-10.9-1.1c-3.5-0.8-6.5-2.3-9.2-4.6c-2.7-2.3-5-4.8-6.9-7.5c-1.9-2.7-3.5-5.5-4.6-8.6c-1.1-3.1-1.7-6.5-1.7-10.4c0-5.4,1.2-10.4,3.5-15c13-24.6,22.2-51,27.6-79.4h1.1c0-0.8,0.2-2.5,0.6-5.2c0.4-2.7,1-8.5,1.7-17.3c0.8-8.8,1.1-18.2,1.1-28.2v-16.1c0-5.4-0.4-10.2-1.1-14.4c-0.8-4.2-1.3-8.1-1.7-11.5c-0.4-3.5-0.6-6-0.6-7.5l-1.1-2.3V325c0-3.1-0.4-5.9-1.1-8.6c-0.8-2.7-1.7-5.2-2.9-7.5c-1.2-2.3-2.7-4.4-4.6-6.3c-1.9-1.9-4-3.5-6.3-4.6c-2.3-1.2-4.8-2.1-7.5-2.9c-2.7-0.8-5.5-1.1-8.6-1.1c-3.8,0-7.7,0.8-11.5,2.3c-3.9,1.5-7.1,3.7-9.8,6.3c-2.7,2.7-4.8,5.9-6.3,9.8c-1.5,3.9-2.3,8.1-2.3,12.7v1.1h-1.1c0.8,17.7-0.8,35.3-4.6,53c-1.5,9.2-4.2,19.2-8.1,29.9c-13.8,42.2-37,78.7-69.6,109.3c-32.6,30.7-70.4,51.4-113.4,62.2L399,916.7h432.7c1.5,0,3.5-0.4,5.7-1.1c2.3-0.8,4.2-1.5,5.7-2.3c5.4-4.6,9.6-9.6,12.7-15l67.9-300.4c0.8-4.6,1-9.2,0.6-13.8c-0.4-4.6-1.7-8.8-4-12.7L920.4,571.4L920.4,571.4z"/></g>
</svg>