<?xml version="1.0" encoding="utf-8"?>
<!-- Svg Vector Icons : http://www.onlinewebfonts.com/icon -->
<!DOCTYPE svg PUBLIC "-//W3C//DTD SVG 1.1//EN" "http://www.w3.org/Graphics/SVG/1.1/DTD/svg11.dtd">
<svg version="1.1" xmlns="http://www.w3.org/2000/svg" xmlns:xlink="http://www.w3.org/1999/xlink" x="0px" y="0px" viewBox="0 0 1000 1000" enable-background="new 0 0 1000 1000" xml:space="preserve">
<metadata> Svg Vector Icons : http://www.onlinewebfonts.com/icon </metadata>
<g><path d="M10,317v-27.9h69.4V317L10,317L10,317z M10,563.1V341.7h29.9v221.4H10z M74.9,496.9V387.5c0-8.7,2.7-15.7,8.1-21c5.4-5.4,11.8-8.1,19.4-8.1H205c10.8,0,18.7,2.7,23.9,8.1c5.4,5.6,8.1,12.3,8.1,20.2V496c0,11.1-2.8,19.2-8.4,24.4c-5.8,5.5-12.5,8.2-20.2,8.2H105.1c-9.4,0-16.9-2.8-22.6-8.6C77.4,514.9,74.9,507.2,74.9,496.9z M114.6,498.2h81.8c7.1,0,10.7-3.7,10.7-11.1v-85.7c0-4.6-1.1-8.1-3.4-10.5c-1.3-1.4-3.8-2.1-7.6-2.1h-79.6c-8.2,0-12.3,3.8-12.3,11.5v83.9C104.3,493.5,107.7,498.2,114.6,498.2z M107.3,318.9v-30.3h146.4c14.8,0,26.4,4,34.7,12.1c8,7.7,11.9,18.3,11.9,31.8v183c0,13.3-2.2,23.2-6.6,29.5c-8.2,12.1-19.7,18.1-34.7,18.1h-12.3v-29.9h7.1c4.2,0.1,8.3-1.9,12.3-6.1c2.9-3,4.4-8.1,4.4-15.3V338.9c0-13.3-6.6-20-19.9-20H107.3z"/><path d="M353.3,369.3v-32.4c14-4.2,23.9-9.4,29.9-15.7c7-7.2,14-20.1,21.1-38.6h32.3c-4.8,17.3-9.7,30.4-14.7,39.2c-8.7,15.6-20.2,27.6-34.4,36C379.8,362.3,368.3,366.2,353.3,369.3z M353.3,440.6v-32.3c14-4.3,23.9-9.5,29.9-15.7c7-7.2,14-20.1,21-38.7h32.3c-4.1,15-8,26.1-11.6,33.6c-2.7,5.7-6.2,11.6-10.7,17.6v152.4h-30V430.9C373.9,435.4,363.6,438.7,353.3,440.6z M443.5,528.7v-29.9h89.6v-21.3h-89.6v-29.9h89.6v-20.8h-83v-30h83v-19h-89.6V348h89.6v-19.9h-83v-30.3h83V282h29.9v15.8h42.8c12,0,20.1,1.3,24.2,4c5.1,3.5,8.5,7.3,10.3,11.3c1.4,3.1,2.1,9,2.1,17.6V348h10.2v29.9h-10.2V394c0,10-1.3,16.9-3.9,20.7c-5.7,8.2-13.1,12.3-22.1,12.3h-53.4v20.8h89.6v29.9h-89.6v21.3h89.6v29.9h-89.6v28.9h-29.9v-28.9H443.5z M562.9,348h49.9v-10.7c0-2.6-0.9-4.9-2.7-7.1c-1.3-1.4-4.2-2.1-8.7-2.1h-38.4V348z M562.9,396.9h38.7c7.4,0,11.1-2.7,11.1-8.1v-11h-49.9V396.9z"/><path d="M691.1,565.2v-30c15.5-1.2,28.9-6.8,40.2-16.8c16.8-14.7,25.2-32.3,25.2-52.8V288.4h29.9v177.2c0,32.7-12.1,58.6-36.2,77.8c-10.7,8.5-22,14.4-34.1,17.8C710.4,562.8,702.1,564.1,691.1,565.2z M694.2,489.5v-194H724v194L694.2,489.5L694.2,489.5z M810.5,550.7v-168c0-11.1,2.6-19.2,7.7-24.4c5.3-5.4,10.9-8.1,16.8-8.1h50.2v-32h-74.7v-29.9H990v29.9h-75.1v32h45.7c9,0,16,2.5,21,7.6c5.6,5.7,8.4,16,8.4,31v128.6c0,12.3-2.8,21.1-8.4,26.5c-5.6,5.3-14.9,7.9-27.9,7.9h-12.9V522h7.3c4.1,0,7-1,8.7-2.9c1.9-2.3,2.9-6.2,2.9-11.8V394.1c0-4.5-0.3-7.3-1-8.4c-2.4-4.1-6.8-6.1-13.4-6.1h-30.3v183.8h-29.7V379.6h-32.6c-4.2,0-7.1,0.8-8.7,2.4c-1.5,1.6-2.4,3.1-2.7,4.5c-0.2,1.2-0.3,3.9-0.3,8.2v155.9H810.5z"/><path d="M180,590.9l-35,125h-18.8L101,625.9c-1.1-4.1-1.8-8.4-2-12.9h-0.3c-0.3,4.5-1.1,8.7-2.3,12.8l-25.4,90.2H52.3l-36.2-125h17.8l25.5,94.4c1.1,4.3,1.8,8.5,2,12.8h0.5c0.3-3.2,1.2-7.5,2.7-12.8l27-94.4h15.9l25.8,95.1c0.9,3.1,1.6,7.1,2.1,11.9h0.3c0.3-3.5,1-7.6,2.3-12.3l24.5-94.8H180z"/><path d="M273,675.4h-62.5c0.3,9.5,2.9,16.9,7.8,22.1c4.9,5.2,11.9,7.8,20.7,7.8c10,0,19.2-3.2,27.5-9.6v14.1c-7.9,5.5-18.3,8.3-31.2,8.3c-12.9,0-23-4.1-30.2-12.3c-7.2-8.2-10.9-19.5-10.9-34.1c0-13.7,4-24.9,11.9-33.8c7.9-8.9,17.8-13.3,29.6-13.3c11.7,0,20.8,3.8,27.4,11.3c6.6,7.5,9.8,18,9.8,31.5L273,675.4L273,675.4z M257.2,662.7c-0.1-8.1-2-14.3-5.7-18.7c-3.8-4.4-9.1-6.6-15.9-6.6c-6.3,0-11.7,2.3-16.3,7c-4.6,4.7-7.5,10.8-8.7,18.3H257.2z"/><path d="M373.7,715.9h-15.7v-50.8c0-18.3-6.7-27.5-20.1-27.5c-6.9,0-12.6,2.6-17.1,7.7c-4.5,5.2-6.7,11.7-6.7,19.6v50.9h-15.8v-89.3H314v14.8h0.3c6.7-11.2,16.5-16.9,29.3-16.9c9.8,0,17.2,3.1,22.4,9.4c5.1,6.3,7.7,15.4,7.7,27.4L373.7,715.9L373.7,715.9z"/><path d="M404.1,715.9V583.8h15.8v132.1L404.1,715.9L404.1,715.9z"/><path d="M524.2,626.7l-35.3,89.3h-16l-33.6-89.3h17.3l21.8,63.8c1.8,5.1,2.8,9.4,3.1,12.8h0.4c0.5-4.5,1.5-8.7,2.8-12.5l22.8-64.1L524.2,626.7L524.2,626.7z"/><path d="M538.2,696.7c8,5.8,16.5,8.6,25.7,8.6c12.3,0,18.5-4,18.5-12.1c0-3.4-1.3-6.3-4-8.5c-2.7-2.2-8.1-4.9-16.4-7.9c-9.9-4-16.3-7.9-19.3-11.8c-3-3.9-4.4-8.6-4.4-14.2c0-7.9,3.3-14.2,10-19c6.7-4.8,14.9-7.1,24.7-7.1c7.6,0,14.6,1.3,21.1,4v15.3c-6.7-4.3-14.2-6.5-22.7-6.5c-5.1,0-9.2,1.1-12.3,3.3c-3.2,2.2-4.8,5.1-4.8,8.7c0,3.6,1.1,6.3,3.4,8.3c2.3,2,7.4,4.5,15.2,7.7c10,3.7,16.7,7.6,20.2,11.5c3.5,4,5.2,8.9,5.2,14.8c0,8.2-3.3,14.6-10,19.3c-6.7,4.7-15.4,7.1-26,7.1c-9.3,0-17.3-1.8-24.2-5.2L538.2,696.7L538.2,696.7z"/><path d="M699.2,715.9h-15.7v-51.3c0-18-6.7-27-20-27c-6.8,0-12.5,2.6-17,7.9c-4.5,5.2-6.8,11.9-6.8,19.8v50.6h-15.8V583.8h15.8v57.5h0.3c6.8-11.2,16.5-16.8,29.1-16.8c20.1,0,30.1,12.1,30.1,36.4V715.9L699.2,715.9z"/><path d="M727.8,595.2c0-2.8,1-5.2,2.9-7.1c1.9-1.9,4.3-2.9,7.1-2.9c2.9,0,5.3,0.9,7.2,2.8c2,1.9,2.9,4.3,2.9,7.1c0,2.8-1,5.1-2.9,7c-2,1.9-4.4,2.8-7.2,2.8s-5.2-0.9-7.1-2.8C728.7,600.3,727.8,598,727.8,595.2z M729.7,715.9v-89.3h15.8v89.3H729.7z"/><path d="M773.3,707.6c0-2.9,1-5.4,3-7.3c2-2,4.5-3,7.4-3c3,0,5.5,1,7.5,3c2,2,3,4.5,3,7.3c0,2.8-1,5.2-3,7.2c-2,2-4.5,3-7.6,3c-3,0-5.4-1-7.4-3C774.3,712.8,773.3,710.4,773.3,707.6z"/><path d="M883.4,711.9c-6.8,4.1-15.1,6.1-24.7,6.1c-12.9,0-23.3-4.1-31.2-12.4c-7.9-8.3-11.8-19-11.8-32.2c0-14.6,4.2-26.4,12.7-35.4c8.5-9,19.8-13.4,34-13.4c8.2,0,15.2,1.5,21,4.4v15.7c-6.3-4.6-13.3-6.9-21-6.9c-9,0-16.4,3.1-22.1,9.4c-5.7,6.3-8.5,14.6-8.5,25.1c0,10.3,2.7,18.3,8,24.1c5.4,5.8,12.6,8.7,21.7,8.7c7.7,0,15-2.5,21.8-7.6V711.9L883.4,711.9z"/><path d="M984.2,715.9h-15.7v-50.8c0-18.3-6.7-27.5-20.1-27.5c-6.9,0-12.6,2.6-17.1,7.7c-4.5,5.2-6.7,11.7-6.7,19.6v50.9h-15.8v-89.3h15.8v14.8h0.3c6.7-11.2,16.5-16.9,29.3-16.9c9.8,0,17.2,3.1,22.4,9.4c5.1,6.3,7.7,15.4,7.7,27.4V715.9z"/></g>
</svg>