<?xml version="1.0" encoding="utf-8"?>
<!-- Svg Vector Icons : http://www.onlinewebfonts.com/icon -->
<!DOCTYPE svg PUBLIC "-//W3C//DTD SVG 1.1//EN" "http://www.w3.org/Graphics/SVG/1.1/DTD/svg11.dtd">
<svg version="1.1" xmlns="http://www.w3.org/2000/svg" xmlns:xlink="http://www.w3.org/1999/xlink" x="0px" y="0px" viewBox="0 0 1000 1000" enable-background="new 0 0 1000 1000" xml:space="preserve">
<metadata> Svg Vector Icons : http://www.onlinewebfonts.com/icon </metadata>
<g><path d="M102.8,409.3C51.6,409.3,10,449.9,10,500c0,50.1,41.6,90.7,92.8,90.7c51.3,0,92.8-40.6,92.8-90.7C195.6,449.9,154.1,409.3,102.8,409.3z M500,409.3c-51.3,0-92.8,40.6-92.8,90.7c0,50.1,41.6,90.7,92.8,90.7c51.3,0,92.8-40.6,92.8-90.7C592.8,449.9,551.3,409.3,500,409.3z M897.2,409.3c-51.3,0-92.8,40.6-92.8,90.7c0,50.1,41.6,90.7,92.8,90.7c51.3,0,92.8-40.6,92.8-90.7C990,449.9,948.4,409.3,897.2,409.3z"/></g>
</svg>